<svg 
 xmlns="http://www.w3.org/2000/svg"
 xmlns:xlink="http://www.w3.org/1999/xlink"
 width="131px" height="98px">
<path fill-rule="evenodd"  opacity="0.2" fill="rgb(255, 255, 255)"
 d="M0.000,98.000 L0.000,96.000 L131.000,96.000 L131.000,98.000 L0.000,98.000 ZM0.000,92.000 L131.000,92.000 L131.000,94.000 L0.000,94.000 L0.000,92.000 ZM0.000,88.000 L131.000,88.000 L131.000,90.000 L0.000,90.000 L0.000,88.000 ZM0.000,84.000 L131.000,84.000 L131.000,86.000 L0.000,86.000 L0.000,84.000 ZM0.000,80.000 L131.000,80.000 L131.000,82.000 L0.000,82.000 L0.000,80.000 ZM0.000,76.000 L131.000,76.000 L131.000,78.000 L0.000,78.000 L0.000,76.000 ZM0.000,72.000 L131.000,72.000 L131.000,74.000 L0.000,74.000 L0.000,72.000 ZM0.000,68.000 L131.000,68.000 L131.000,70.000 L0.000,70.000 L0.000,68.000 ZM0.000,64.000 L131.000,64.000 L131.000,66.000 L0.000,66.000 L0.000,64.000 ZM0.000,60.000 L131.000,60.000 L131.000,62.000 L0.000,62.000 L0.000,60.000 ZM0.000,56.000 L131.000,56.000 L131.000,58.000 L0.000,58.000 L0.000,56.000 ZM0.000,52.000 L131.000,52.000 L131.000,54.000 L0.000,54.000 L0.000,52.000 ZM0.000,48.000 L131.000,48.000 L131.000,50.000 L0.000,50.000 L0.000,48.000 ZM0.000,44.000 L131.000,44.000 L131.000,46.000 L0.000,46.000 L0.000,44.000 ZM0.000,40.000 L131.000,40.000 L131.000,42.000 L0.000,42.000 L0.000,40.000 ZM0.000,36.000 L131.000,36.000 L131.000,38.000 L0.000,38.000 L0.000,36.000 ZM0.000,32.000 L131.000,32.000 L131.000,34.000 L0.000,34.000 L0.000,32.000 ZM0.000,28.000 L131.000,28.000 L131.000,30.000 L0.000,30.000 L0.000,28.000 ZM0.000,24.000 L131.000,24.000 L131.000,26.000 L0.000,26.000 L0.000,24.000 ZM0.000,20.000 L131.000,20.000 L131.000,22.000 L0.000,22.000 L0.000,20.000 ZM0.000,16.000 L131.000,16.000 L131.000,18.000 L0.000,18.000 L0.000,16.000 ZM0.000,12.000 L131.000,12.000 L131.000,14.000 L0.000,14.000 L0.000,12.000 ZM0.000,8.000 L131.000,8.000 L131.000,10.000 L0.000,10.000 L0.000,8.000 ZM0.000,4.000 L131.000,4.000 L131.000,6.000 L0.000,6.000 L0.000,4.000 ZM0.000,-0.000 L131.000,-0.000 L131.000,2.000 L0.000,2.000 L0.000,-0.000 Z"/>
</svg>