<svg 
 xmlns="http://www.w3.org/2000/svg"
 xmlns:xlink="http://www.w3.org/1999/xlink"
 width="100px" height="100px">
<path fill-rule="evenodd"  opacity="0.349" fill="rgb(255, 255, 255)"
 d="M50.000,100.000 C22.386,100.000 -0.000,77.614 -0.000,50.000 C-0.000,22.386 22.386,-0.000 50.000,-0.000 C77.614,-0.000 100.000,22.386 100.000,50.000 C100.000,77.614 77.614,100.000 50.000,100.000 ZM50.000,1.000 C22.938,1.000 1.000,22.938 1.000,50.000 C1.000,77.062 22.938,99.000 50.000,99.000 C77.062,99.000 99.000,77.062 99.000,50.000 C99.000,22.938 77.062,1.000 50.000,1.000 ZM50.000,97.000 C24.043,97.000 3.000,75.957 3.000,50.000 C3.000,24.043 24.043,3.000 50.000,3.000 C75.957,3.000 97.000,24.043 97.000,50.000 C97.000,75.957 75.957,97.000 50.000,97.000 ZM50.000,4.000 C24.595,4.000 4.000,24.595 4.000,50.000 C4.000,75.405 24.595,96.000 50.000,96.000 C75.405,96.000 96.000,75.405 96.000,50.000 C96.000,24.595 75.405,4.000 50.000,4.000 ZM50.000,94.000 C25.699,94.000 6.000,74.301 6.000,50.000 C6.000,25.699 25.699,6.000 50.000,6.000 C74.301,6.000 94.000,25.699 94.000,50.000 C94.000,74.301 74.301,94.000 50.000,94.000 ZM50.000,7.000 C26.252,7.000 7.000,26.252 7.000,50.000 C7.000,73.748 26.252,93.000 50.000,93.000 C73.748,93.000 93.000,73.748 93.000,50.000 C93.000,26.252 73.748,7.000 50.000,7.000 ZM50.000,91.000 C27.356,91.000 9.000,72.644 9.000,50.000 C9.000,27.356 27.356,9.000 50.000,9.000 C72.644,9.000 91.000,27.356 91.000,50.000 C91.000,72.644 72.644,91.000 50.000,91.000 ZM50.000,10.000 C27.909,10.000 10.000,27.909 10.000,50.000 C10.000,72.091 27.909,90.000 50.000,90.000 C72.091,90.000 90.000,72.091 90.000,50.000 C90.000,27.909 72.091,10.000 50.000,10.000 ZM50.000,88.000 C29.013,88.000 12.000,70.987 12.000,50.000 C12.000,29.013 29.013,12.000 50.000,12.000 C70.987,12.000 88.000,29.013 88.000,50.000 C88.000,70.987 70.987,88.000 50.000,88.000 ZM50.000,13.000 C29.565,13.000 13.000,29.565 13.000,50.000 C13.000,70.435 29.565,87.000 50.000,87.000 C70.435,87.000 87.000,70.435 87.000,50.000 C87.000,29.565 70.435,13.000 50.000,13.000 ZM50.000,85.000 C30.670,85.000 15.000,69.330 15.000,50.000 C15.000,30.670 30.670,15.000 50.000,15.000 C69.330,15.000 85.000,30.670 85.000,50.000 C85.000,69.330 69.330,85.000 50.000,85.000 ZM50.000,16.000 C31.222,16.000 16.000,31.222 16.000,50.000 C16.000,68.778 31.222,84.000 50.000,84.000 C68.778,84.000 84.000,68.778 84.000,50.000 C84.000,31.222 68.778,16.000 50.000,16.000 ZM50.000,82.000 C32.327,82.000 18.000,67.673 18.000,50.000 C18.000,32.327 32.327,18.000 50.000,18.000 C67.673,18.000 82.000,32.327 82.000,50.000 C82.000,67.673 67.673,82.000 50.000,82.000 ZM50.000,19.000 C32.879,19.000 19.000,32.879 19.000,50.000 C19.000,67.121 32.879,81.000 50.000,81.000 C67.121,81.000 81.000,67.121 81.000,50.000 C81.000,32.879 67.121,19.000 50.000,19.000 ZM50.000,79.000 C33.984,79.000 21.000,66.016 21.000,50.000 C21.000,33.984 33.984,21.000 50.000,21.000 C66.016,21.000 79.000,33.984 79.000,50.000 C79.000,66.016 66.016,79.000 50.000,79.000 ZM50.000,22.000 C34.536,22.000 22.000,34.536 22.000,50.000 C22.000,65.464 34.536,78.000 50.000,78.000 C65.464,78.000 78.000,65.464 78.000,50.000 C78.000,34.536 65.464,22.000 50.000,22.000 ZM50.000,76.000 C35.641,76.000 24.000,64.359 24.000,50.000 C24.000,35.641 35.641,24.000 50.000,24.000 C64.359,24.000 76.000,35.641 76.000,50.000 C76.000,64.359 64.359,76.000 50.000,76.000 ZM50.000,25.000 C36.193,25.000 25.000,36.193 25.000,50.000 C25.000,63.807 36.193,75.000 50.000,75.000 C63.807,75.000 75.000,63.807 75.000,50.000 C75.000,36.193 63.807,25.000 50.000,25.000 ZM50.000,73.000 C37.297,73.000 27.000,62.703 27.000,50.000 C27.000,37.297 37.297,27.000 50.000,27.000 C62.703,27.000 73.000,37.297 73.000,50.000 C73.000,62.703 62.703,73.000 50.000,73.000 ZM50.000,28.000 C37.850,28.000 28.000,37.850 28.000,50.000 C28.000,62.150 37.850,72.000 50.000,72.000 C62.150,72.000 72.000,62.150 72.000,50.000 C72.000,37.850 62.150,28.000 50.000,28.000 ZM50.000,70.000 C38.954,70.000 30.000,61.046 30.000,50.000 C30.000,38.954 38.954,30.000 50.000,30.000 C61.046,30.000 70.000,38.954 70.000,50.000 C70.000,61.046 61.046,70.000 50.000,70.000 ZM50.000,31.000 C39.507,31.000 31.000,39.507 31.000,50.000 C31.000,60.493 39.507,69.000 50.000,69.000 C60.493,69.000 69.000,60.493 69.000,50.000 C69.000,39.507 60.493,31.000 50.000,31.000 Z"/>
</svg>