<svg 
 xmlns="http://www.w3.org/2000/svg"
 xmlns:xlink="http://www.w3.org/1999/xlink"
 width="1500px" height="3012px">
<path fill-rule="evenodd"  opacity="0.122" fill="rgb(255, 255, 255)"
 d="M1426.548,2090.515 L1401.503,2103.060 C1427.450,2236.309 1409.362,2372.609 1353.739,2492.455 C1387.675,2519.377 1396.003,2568.241 1371.709,2605.092 C1347.923,2641.174 1301.228,2653.048 1263.508,2634.213 C1209.440,2698.450 1141.689,2752.973 1061.850,2792.964 C1042.092,2802.861 1022.063,2811.625 1001.840,2819.295 L1008.754,2852.959 C1023.420,2924.370 977.419,2994.150 906.008,3008.816 C834.597,3023.483 764.818,2977.482 750.151,2906.071 L740.560,2859.370 C549.299,2848.211 367.672,2750.800 254.192,2586.594 L218.907,2604.268 C153.726,2636.918 74.418,2610.545 41.769,2545.363 C9.119,2480.181 35.492,2400.873 100.674,2368.224 L151.941,2342.545 C139.013,2274.373 137.590,2205.440 146.801,2138.356 L120.978,2121.333 C-2.367,2040.020 -36.442,1874.112 44.871,1750.766 C126.184,1627.420 292.093,1593.346 415.438,1674.659 L435.378,1687.803 C453.562,1676.255 472.504,1665.516 492.180,1655.660 C532.704,1635.362 574.363,1619.810 616.524,1608.773 L618.809,1570.247 C623.124,1497.473 685.618,1441.977 758.392,1446.293 C831.165,1450.609 886.661,1513.102 882.346,1585.876 L881.687,1596.985 C902.185,1600.422 922.492,1604.819 942.520,1610.224 L183.828,95.552 L234.792,70.024 L234.805,70.018 L234.874,70.086 C237.916,72.392 330.937,141.995 549.276,199.938 C765.129,257.222 1004.586,339.892 1120.568,478.591 C1345.365,747.419 1257.544,925.034 1162.533,1002.248 C1099.528,1053.452 1040.922,1045.268 1040.922,1045.268 C1040.922,1045.268 950.216,1037.653 1044.015,993.389 C1096.162,968.780 1146.234,826.133 986.554,688.877 C896.224,611.233 751.193,624.710 691.937,634.353 L1304.136,1856.563 L1308.314,1854.471 C1373.496,1821.821 1452.804,1848.194 1485.453,1913.376 C1518.102,1978.558 1491.729,2057.866 1426.548,2090.515 ZM661.182,342.967 C649.310,319.264 620.471,309.674 596.768,321.547 C573.066,333.419 563.476,362.258 575.348,385.961 C587.220,409.663 616.060,419.253 639.762,407.381 C663.465,395.508 673.055,366.669 661.182,342.967 ZM1241.057,1991.876 C1112.686,1735.593 800.862,1631.900 544.579,1760.270 C288.296,1888.641 184.603,2200.465 312.974,2456.748 C441.344,2713.031 753.168,2816.724 1009.451,2688.353 C1265.734,2559.983 1369.428,2248.159 1241.057,1991.876 ZM969.144,2607.884 C757.304,2713.994 499.553,2628.282 393.443,2416.441 C287.333,2204.600 373.045,1946.850 584.886,1840.740 C796.727,1734.630 1054.477,1820.342 1160.587,2032.183 C1266.697,2244.024 1180.985,2501.774 969.144,2607.884 ZM1345.134,569.662 C1309.315,594.941 1249.026,630.104 1249.026,630.104 C1249.026,630.104 1233.760,597.081 1217.678,569.753 C1201.274,541.876 1181.417,517.455 1181.417,517.455 C1181.417,517.455 1265.646,523.356 1319.163,524.512 C1375.798,525.735 1374.176,531.628 1374.176,531.628 C1374.176,531.628 1385.480,541.188 1345.134,569.662 Z"/>
</svg>