<svg 
 xmlns="http://www.w3.org/2000/svg"
 xmlns:xlink="http://www.w3.org/1999/xlink"
 width="6653px" height="2933px">
<defs>
<linearGradient id="PSgrad_0" x1="0%" x2="0%" y1="0%" y2="100%">
  <stop offset="0%" stop-color="rgb(255,0,240)" stop-opacity="1" />
  <stop offset="100%" stop-color="rgb(0,180,255)" stop-opacity="1" />
</linearGradient>

</defs>
<path fill-rule="evenodd"  fill="rgb(0, 0, 0)"
 d="M6463.027,1826.656 C6463.027,1736.433 6426.938,1702.149 6363.782,1702.149 C6300.627,1702.149 6264.538,1736.433 6264.538,1826.656 C6264.538,1918.682 6304.236,1987.251 6434.156,2100.931 C6600.165,2247.091 6652.493,2351.749 6652.493,2496.105 C6652.493,2698.203 6551.445,2813.687 6356.565,2813.687 C6227.571,2813.687 6139.705,2763.074 6095.024,2670.253 L6095.024,2799.252 L5569.931,2799.252 L5569.931,1536.140 L5768.420,1536.140 L5768.420,2618.807 L6075.857,2618.807 C6065.748,2582.487 6060.636,2541.487 6060.636,2496.105 L6060.636,2418.514 L6248.298,2418.514 L6248.298,2508.736 C6248.298,2598.958 6287.996,2631.438 6351.151,2631.438 C6414.307,2631.438 6454.005,2598.958 6454.005,2508.736 C6454.005,2416.709 6414.307,2348.140 6284.387,2234.460 C6118.378,2088.300 6066.049,1983.642 6066.049,1839.287 C6066.049,1637.189 6165.293,1521.705 6358.369,1521.705 C6551.445,1521.705 6650.689,1637.189 6650.689,1839.287 L6650.689,1878.985 L6463.027,1878.985 L6463.027,1826.656 ZM5333.658,2570.087 L5090.058,2570.087 L5055.773,2799.252 L4873.524,2799.252 L5075.622,1536.140 L5366.138,1536.140 L5568.236,2799.252 L5367.942,2799.252 L5333.658,2570.087 ZM5212.760,1759.891 L5209.151,1759.891 L5115.320,2398.665 L5306.591,2398.665 L5212.760,1759.891 ZM4684.229,1893.420 L4680.620,1893.420 L4547.091,2799.252 L4359.429,2799.252 L4215.073,1906.051 L4211.464,1906.051 L4211.464,2799.252 L4038.237,2799.252 L4038.237,1536.140 L4314.317,1536.140 L4458.673,2432.949 L4462.282,2432.949 L4595.811,1536.140 L4871.891,1536.140 L4871.891,2799.252 L4684.229,2799.252 L4684.229,1893.420 ZM3787.484,1536.140 L3985.973,1536.140 L3985.973,2799.252 L3787.484,2799.252 L3787.484,1536.140 ZM3764.134,2496.105 C3764.134,2698.203 3663.085,2813.687 3468.205,2813.687 C3273.325,2813.687 3172.276,2698.203 3172.276,2496.105 L3172.276,2418.514 L3359.939,2418.514 L3359.939,2508.736 C3359.939,2598.958 3399.636,2631.438 3462.792,2631.438 C3525.947,2631.438 3565.645,2598.958 3565.645,2508.736 C3565.645,2416.709 3525.947,2348.140 3396.027,2234.460 C3230.019,2088.300 3177.690,1983.642 3177.690,1839.287 C3177.690,1637.189 3276.934,1521.705 3470.010,1521.705 C3663.085,1521.705 3762.330,1637.189 3762.330,1839.287 L3762.330,1878.985 L3574.668,1878.985 L3574.668,1826.656 C3574.668,1736.433 3538.579,1702.149 3475.423,1702.149 C3412.267,1702.149 3376.179,1736.433 3376.179,1826.656 C3376.179,1918.682 3415.876,1987.251 3545.796,2100.931 C3711.805,2247.091 3764.134,2351.749 3764.134,2496.105 ZM2862.023,2815.492 C2667.143,2815.492 2566.094,2700.007 2566.094,2497.909 L2566.094,1536.140 L2764.583,1536.140 L2764.583,2510.540 C2764.583,2600.763 2804.281,2633.243 2867.437,2633.243 C2930.592,2633.243 2970.290,2600.763 2970.290,2510.540 L2970.290,1536.140 L3157.952,1536.140 L3157.952,2497.909 C3157.952,2700.007 3056.903,2815.492 2862.023,2815.492 ZM2333.492,1893.420 L2329.883,1893.420 L2196.354,2799.252 L2008.692,2799.252 L1864.336,1906.051 L1860.727,1906.051 L1860.727,2799.252 L1687.501,2799.252 L1687.501,1536.140 L1963.581,1536.140 L2107.936,2432.949 L2111.545,2432.949 L2245.074,1536.140 L2521.154,1536.140 L2521.154,2799.252 L2333.492,2799.252 L2333.492,1893.420 ZM2051.000,944.000 C2007.652,950.561 1938.000,955.000 1938.000,955.000 C1938.000,955.000 1939.139,918.637 1937.000,887.000 C1934.818,854.728 1928.000,824.000 1928.000,824.000 C1928.000,824.000 2000.668,866.999 2048.000,892.000 C2098.090,918.458 2094.000,923.000 2094.000,923.000 C2094.000,923.000 2099.825,936.610 2051.000,944.000 ZM1694.000,1249.000 C1614.735,1266.564 1566.000,1233.000 1566.000,1233.000 C1566.000,1233.000 1488.309,1185.569 1592.000,1188.000 C1649.646,1189.352 1758.301,1084.235 1677.000,890.000 C1631.009,780.122 1495.299,727.221 1438.000,709.304 L1438.000,2076.267 L1442.673,2076.267 C1515.575,2076.267 1574.673,2135.365 1574.673,2208.267 C1574.673,2281.168 1515.575,2340.267 1442.673,2340.267 L1414.662,2340.267 C1378.186,2471.026 1300.970,2584.792 1197.564,2667.036 C1215.849,2706.306 1201.411,2753.725 1163.187,2775.794 C1125.758,2797.404 1078.672,2787.120 1053.383,2753.382 C976.276,2786.596 891.288,2805.000 802.000,2805.000 C779.902,2805.000 758.069,2803.867 736.552,2801.667 L727.657,2834.863 C708.789,2905.280 636.408,2947.069 565.991,2928.201 C495.573,2909.332 453.784,2836.952 472.653,2766.534 L484.992,2720.483 C318.982,2624.849 200.214,2456.411 172.291,2258.771 L132.827,2258.771 C59.925,2258.771 0.827,2199.673 0.827,2126.771 C0.827,2053.870 59.925,1994.771 132.827,1994.771 L190.194,1994.771 C209.167,1928.032 238.740,1865.754 277.017,1809.903 L261.552,1783.118 C187.684,1655.175 231.521,1491.574 359.464,1417.706 C487.407,1343.838 651.008,1387.675 724.876,1515.618 L736.817,1536.300 C758.248,1534.119 779.993,1533.000 802.000,1533.000 C847.324,1533.000 891.538,1537.746 934.178,1546.760 L953.472,1513.343 C989.923,1450.208 1070.652,1428.576 1133.787,1465.027 C1196.922,1501.478 1218.553,1582.208 1182.102,1645.343 L1176.554,1654.952 C1193.344,1667.206 1209.513,1680.259 1225.000,1694.062 L1225.000,0.000 L1282.014,0.000 L1282.045,0.092 C1283.732,3.516 1335.731,107.408 1505.000,257.000 C1672.340,404.888 1849.417,586.045 1891.000,762.000 C1971.597,1103.037 1813.530,1222.513 1694.000,1249.000 ZM802.000,1650.000 C515.364,1650.000 283.000,1882.364 283.000,2169.000 C283.000,2455.636 515.364,2688.000 802.000,2688.000 C1088.636,2688.000 1321.000,2455.636 1321.000,2169.000 C1321.000,1882.364 1088.636,1650.000 802.000,1650.000 ZM1493.000,387.000 C1466.490,387.000 1445.000,408.490 1445.000,435.000 C1445.000,461.510 1466.490,483.000 1493.000,483.000 C1519.510,483.000 1541.000,461.510 1541.000,435.000 C1541.000,408.490 1519.510,387.000 1493.000,387.000 ZM802.000,2598.000 C565.070,2598.000 373.000,2405.930 373.000,2169.000 C373.000,1932.070 565.070,1740.000 802.000,1740.000 C1038.930,1740.000 1231.000,1932.070 1231.000,2169.000 C1231.000,2405.930 1038.930,2598.000 802.000,2598.000 Z"/>
<path fill="url(#PSgrad_0)"
 d="M6463.027,1826.656 C6463.027,1736.433 6426.938,1702.149 6363.782,1702.149 C6300.627,1702.149 6264.538,1736.433 6264.538,1826.656 C6264.538,1918.682 6304.236,1987.251 6434.156,2100.931 C6600.165,2247.091 6652.493,2351.749 6652.493,2496.105 C6652.493,2698.203 6551.445,2813.687 6356.565,2813.687 C6227.571,2813.687 6139.705,2763.074 6095.024,2670.253 L6095.024,2799.252 L5569.931,2799.252 L5569.931,1536.140 L5768.420,1536.140 L5768.420,2618.807 L6075.857,2618.807 C6065.748,2582.487 6060.636,2541.487 6060.636,2496.105 L6060.636,2418.514 L6248.298,2418.514 L6248.298,2508.736 C6248.298,2598.958 6287.996,2631.438 6351.151,2631.438 C6414.307,2631.438 6454.005,2598.958 6454.005,2508.736 C6454.005,2416.709 6414.307,2348.140 6284.387,2234.460 C6118.378,2088.300 6066.049,1983.642 6066.049,1839.287 C6066.049,1637.189 6165.293,1521.705 6358.369,1521.705 C6551.445,1521.705 6650.689,1637.189 6650.689,1839.287 L6650.689,1878.985 L6463.027,1878.985 L6463.027,1826.656 ZM5333.658,2570.087 L5090.058,2570.087 L5055.773,2799.252 L4873.524,2799.252 L5075.622,1536.140 L5366.138,1536.140 L5568.236,2799.252 L5367.942,2799.252 L5333.658,2570.087 ZM5212.760,1759.891 L5209.151,1759.891 L5115.320,2398.665 L5306.591,2398.665 L5212.760,1759.891 ZM4684.229,1893.420 L4680.620,1893.420 L4547.091,2799.252 L4359.429,2799.252 L4215.073,1906.051 L4211.464,1906.051 L4211.464,2799.252 L4038.237,2799.252 L4038.237,1536.140 L4314.317,1536.140 L4458.673,2432.949 L4462.282,2432.949 L4595.811,1536.140 L4871.891,1536.140 L4871.891,2799.252 L4684.229,2799.252 L4684.229,1893.420 ZM3787.484,1536.140 L3985.973,1536.140 L3985.973,2799.252 L3787.484,2799.252 L3787.484,1536.140 ZM3764.134,2496.105 C3764.134,2698.203 3663.085,2813.687 3468.205,2813.687 C3273.325,2813.687 3172.276,2698.203 3172.276,2496.105 L3172.276,2418.514 L3359.939,2418.514 L3359.939,2508.736 C3359.939,2598.958 3399.636,2631.438 3462.792,2631.438 C3525.947,2631.438 3565.645,2598.958 3565.645,2508.736 C3565.645,2416.709 3525.947,2348.140 3396.027,2234.460 C3230.019,2088.300 3177.690,1983.642 3177.690,1839.287 C3177.690,1637.189 3276.934,1521.705 3470.010,1521.705 C3663.085,1521.705 3762.330,1637.189 3762.330,1839.287 L3762.330,1878.985 L3574.668,1878.985 L3574.668,1826.656 C3574.668,1736.433 3538.579,1702.149 3475.423,1702.149 C3412.267,1702.149 3376.179,1736.433 3376.179,1826.656 C3376.179,1918.682 3415.876,1987.251 3545.796,2100.931 C3711.805,2247.091 3764.134,2351.749 3764.134,2496.105 ZM2862.023,2815.492 C2667.143,2815.492 2566.094,2700.007 2566.094,2497.909 L2566.094,1536.140 L2764.583,1536.140 L2764.583,2510.540 C2764.583,2600.763 2804.281,2633.243 2867.437,2633.243 C2930.592,2633.243 2970.290,2600.763 2970.290,2510.540 L2970.290,1536.140 L3157.952,1536.140 L3157.952,2497.909 C3157.952,2700.007 3056.903,2815.492 2862.023,2815.492 ZM2333.492,1893.420 L2329.883,1893.420 L2196.354,2799.252 L2008.692,2799.252 L1864.336,1906.051 L1860.727,1906.051 L1860.727,2799.252 L1687.501,2799.252 L1687.501,1536.140 L1963.581,1536.140 L2107.936,2432.949 L2111.545,2432.949 L2245.074,1536.140 L2521.154,1536.140 L2521.154,2799.252 L2333.492,2799.252 L2333.492,1893.420 ZM2051.000,944.000 C2007.652,950.561 1938.000,955.000 1938.000,955.000 C1938.000,955.000 1939.139,918.637 1937.000,887.000 C1934.818,854.728 1928.000,824.000 1928.000,824.000 C1928.000,824.000 2000.668,866.999 2048.000,892.000 C2098.090,918.458 2094.000,923.000 2094.000,923.000 C2094.000,923.000 2099.825,936.610 2051.000,944.000 ZM1694.000,1249.000 C1614.735,1266.564 1566.000,1233.000 1566.000,1233.000 C1566.000,1233.000 1488.309,1185.569 1592.000,1188.000 C1649.646,1189.352 1758.301,1084.235 1677.000,890.000 C1631.009,780.122 1495.299,727.221 1438.000,709.304 L1438.000,2076.267 L1442.673,2076.267 C1515.575,2076.267 1574.673,2135.365 1574.673,2208.267 C1574.673,2281.168 1515.575,2340.267 1442.673,2340.267 L1414.662,2340.267 C1378.186,2471.026 1300.970,2584.792 1197.564,2667.036 C1215.849,2706.306 1201.411,2753.725 1163.187,2775.794 C1125.758,2797.404 1078.672,2787.120 1053.383,2753.382 C976.276,2786.596 891.288,2805.000 802.000,2805.000 C779.902,2805.000 758.069,2803.867 736.552,2801.667 L727.657,2834.863 C708.789,2905.280 636.408,2947.069 565.991,2928.201 C495.573,2909.332 453.784,2836.952 472.653,2766.534 L484.992,2720.483 C318.982,2624.849 200.214,2456.411 172.291,2258.771 L132.827,2258.771 C59.925,2258.771 0.827,2199.673 0.827,2126.771 C0.827,2053.870 59.925,1994.771 132.827,1994.771 L190.194,1994.771 C209.167,1928.032 238.740,1865.754 277.017,1809.903 L261.552,1783.118 C187.684,1655.175 231.521,1491.574 359.464,1417.706 C487.407,1343.838 651.008,1387.675 724.876,1515.618 L736.817,1536.300 C758.248,1534.119 779.993,1533.000 802.000,1533.000 C847.324,1533.000 891.538,1537.746 934.178,1546.760 L953.472,1513.343 C989.923,1450.208 1070.652,1428.576 1133.787,1465.027 C1196.922,1501.478 1218.553,1582.208 1182.102,1645.343 L1176.554,1654.952 C1193.344,1667.206 1209.513,1680.259 1225.000,1694.062 L1225.000,0.000 L1282.014,0.000 L1282.045,0.092 C1283.732,3.516 1335.731,107.408 1505.000,257.000 C1672.340,404.888 1849.417,586.045 1891.000,762.000 C1971.597,1103.037 1813.530,1222.513 1694.000,1249.000 ZM802.000,1650.000 C515.364,1650.000 283.000,1882.364 283.000,2169.000 C283.000,2455.636 515.364,2688.000 802.000,2688.000 C1088.636,2688.000 1321.000,2455.636 1321.000,2169.000 C1321.000,1882.364 1088.636,1650.000 802.000,1650.000 ZM1493.000,387.000 C1466.490,387.000 1445.000,408.490 1445.000,435.000 C1445.000,461.510 1466.490,483.000 1493.000,483.000 C1519.510,483.000 1541.000,461.510 1541.000,435.000 C1541.000,408.490 1519.510,387.000 1493.000,387.000 ZM802.000,2598.000 C565.070,2598.000 373.000,2405.930 373.000,2169.000 C373.000,1932.070 565.070,1740.000 802.000,1740.000 C1038.930,1740.000 1231.000,1932.070 1231.000,2169.000 C1231.000,2405.930 1038.930,2598.000 802.000,2598.000 Z"/>
</svg>